<?xml version="1.0" encoding="UTF-8" standalone="no"?>
<svg
   xmlns:dc="http://purl.org/dc/elements/1.1/"
   xmlns:cc="http://creativecommons.org/ns#"
   xmlns:rdf="http://www.w3.org/1999/02/22-rdf-syntax-ns#"
   xmlns:svg="http://www.w3.org/2000/svg"
   xmlns="http://www.w3.org/2000/svg"
   xmlns:sodipodi="http://sodipodi.sourceforge.net/DTD/sodipodi-0.dtd"
   xmlns:inkscape="http://www.inkscape.org/namespaces/inkscape"
   sodipodi:docname="baseplate.svg"
   id="svg14"
   version="1.1"
   viewBox="22 -21 82 102"
   height="102mm"
   width="82mm"
   inkscape:version="1.0.1 (c497b03c, 2020-09-10)">
  <metadata
     id="metadata20">
    <rdf:RDF>
      <cc:Work
         rdf:about="">
        <dc:format>image/svg+xml</dc:format>
        <dc:type
           rdf:resource="http://purl.org/dc/dcmitype/StillImage" />
      </cc:Work>
    </rdf:RDF>
  </metadata>
  <defs
     id="defs18" />
  <sodipodi:namedview
     pagecolor="#ffffff"
     bordercolor="#666666"
     borderopacity="1"
     objecttolerance="10"
     gridtolerance="10"
     guidetolerance="10"
     inkscape:pageopacity="0"
     inkscape:pageshadow="2"
     inkscape:window-width="1712"
     inkscape:window-height="1052"
     id="namedview16"
     showgrid="false"
     inkscape:snap-midpoints="true"
     inkscape:zoom="2.2292888"
     inkscape:cx="275.22288"
     inkscape:cy="189.50019"
     inkscape:window-x="562"
     inkscape:window-y="63"
     inkscape:window-maximized="0"
     inkscape:current-layer="svg14" />
  <title
     id="title10">OpenSCAD Model</title>
  <path
     d="M 62.15,46.4722 61.3,45 62.15,43.5278 h 1.7 L 64.7,45 63.85,46.4722 Z"
     id="path52"
     style="fill:none;stroke:#00ff00;stroke-width:0.26458333;stroke-miterlimit:4;stroke-dasharray:none" />
  <path
     d="M 25.15,41.4722 24.3,40 25.15,38.5278 h 1.7 L 27.7,40 26.85,41.4722 Z"
     id="path50"
     style="fill:none;stroke:#00ff00;stroke-width:0.26458333;stroke-miterlimit:4;stroke-dasharray:none" />
  <path
     d="M 24.15,-1.52776 23.3,-3 24.15,-4.47223 h 1.7 L 26.7,-3 25.85,-1.52776 Z"
     id="path46"
     style="fill:none;stroke:#00ff00;stroke-width:0.26458333;stroke-miterlimit:4;stroke-dasharray:none" />
  <path
     d="M 71.15,-3.52776 70.3,-5 71.15,-6.47223 h 1.7 L 73.7,-5 72.85,-3.52776 Z"
     id="path44"
     style="fill:none;stroke:#00ff00;stroke-width:0.26458333;stroke-miterlimit:4;stroke-dasharray:none" />
  <path
     style="fill:none;stroke:#0000ff;stroke-width:0.264583;stroke-miterlimit:4;stroke-dasharray:none"
     d="m 56.6508,-20.0369 -1.7692,-0.2806 H 40.3489 l -10.7506,3 -1.7244,0.8192 -1.5,1.0898 -1.0249,1.6591 -0.573,1.7633 v 6.13294 h -0.7031 l -1.5,1.08981 L 22,-3 l 0.5729,1.76337 1.5,1.08981 H 24.776 V 11.9861 l 0.716,25.1607 h -0.4191 l -1.5,1.0898 L 23,40 l 0.5729,1.7634 1.5,1.0898 h 0.5814 L 26,55 l 1.1459,3.5267 13.3152,12.6253 1.5,1.0898 1.5914,0.8304 h 1.8541"
     id="path1203" />
  <path
     style="fill:none;stroke:#999999;stroke-width:0.264583;stroke-miterlimit:4;stroke-dasharray:none"
     d="m 45.4066,73.0722 1.41,-0.1136 1.5,-1.0898 17.6047,-14.7722 0.7808,-1.0215 0.5729,-1.7633 -0.0962,-1.6052 -0.573,-1.7633 -1.8642,-3.6819 0.6854,-0.498 L 66,45 l -0.573,-1.7634 -1.5,-1.0898 h -1.775 l -7.5668,-14.9446 10.2689,-8.6755 5,-5 5,-14.99997 L 76,-5 l -1.1459,-3.5267 -3,-2.1796 -15.2033,-9.3306"
     id="path40" />
  <path
     d="m 77.5544,76.689 -0.2952,-1.6742 1.3023,-1.0927 1.5975,0.5814 0.2952,1.6742 -1.3023,1.0927 z"
     id="path38"
     style="fill:none;stroke:#ff00ff;stroke-width:0.26458333;stroke-miterlimit:4;stroke-dasharray:none" />
  <path
     d="m 59.6094,70.8602 -0.2952,-1.6742 1.3023,-1.0927 1.5974,0.5814 0.2953,1.6742 -1.3023,1.0927 z"
     id="path36"
     style="fill:none;stroke:#ff00ff;stroke-width:0.26458333;stroke-miterlimit:4;stroke-dasharray:none" />
  <path
     d="m 74.9303,58.0044 -0.2952,-1.6742 1.3023,-1.0927 1.5974,0.5814 0.2952,1.6742 -1.3022,1.0927 z"
     id="path32"
     style="fill:none;stroke:#ff00ff;stroke-width:0.26458333;stroke-miterlimit:4;stroke-dasharray:none" />
  <path
     style="fill:none;stroke:#0000ff;stroke-width:0.264583;stroke-miterlimit:4;stroke-dasharray:none"
     d="m 58.3099,73.9675 1.7713,0.7267 17.945,5.8288 1.9061,-0.1796 1.09,-0.4404 1.6042,-1.0449 0.9349,-1.6707 0.0514,-1.9139 -0.082,-1.1727 -2.6241,-18.6846"
     id="path1207" />
  <path
     style="fill:none;stroke:#999999;stroke-width:0.264583;stroke-miterlimit:4;stroke-dasharray:none"
     d="m 80.9067,55.4162 -0.8439,-1.7185 -1.5459,-1.1294 -1.1406,-0.2844 -1.8937,-0.2818 -1.8077,0.6306 -15.3209,12.8558 -1.3076,1.3984 -0.6229,0.997 -0.5079,1.8459 0.4081,1.8705 1.9862,2.3672"
     id="path30" />
  <path
     style="fill:none;stroke:#0000ff;stroke-width:0.264583;stroke-miterlimit:4;stroke-dasharray:none"
     d="M 103.542,31.8589 104,30 v -40 l -0.458,-1.8589 -1.27,-1.433 -1.79,-0.6789"
     id="path1211" />
  <path
     style="fill:none;stroke:#999999;stroke-width:0.264583;stroke-miterlimit:4;stroke-dasharray:none"
     d="m 100.482,-13.9708 -1.9004,0.2307 -1.5756,1.0876 -0.8898,1.6952 v 41.9146 l 0.8898,1.6952 1.5756,1.0876 1.9004,0.2307 1.79,-0.6789 1.27,-1.433"
     id="path12" />
  <path
     style="fill:#0000ff;stroke:#0000ff;stroke-width:0.26458333;stroke-linecap:butt;stroke-linejoin:miter;stroke-opacity:1;stroke-miterlimit:4;stroke-dasharray:none"
     d="M 56.650799,-20.0369 100.482,-13.9708"
     id="path22" />
  <path
     style="fill:#0000ff;stroke:#0000ff;stroke-width:0.26458333;stroke-linecap:butt;stroke-linejoin:miter;stroke-opacity:1;stroke-miterlimit:4;stroke-dasharray:none"
     d="m 45.4066,73.072198 12.9033,0.895303"
     id="path24" />
  <path
     style="fill:#0000ff;stroke:#0000ff;stroke-width:0.264583;stroke-linecap:butt;stroke-linejoin:miter;stroke-miterlimit:4;stroke-dasharray:none;stroke-opacity:1"
     d="M 80.9067,55.4162 103.542,31.8589"
     id="path26"
     sodipodi:nodetypes="cc" />
</svg>
