<?xml version="1.0" encoding="UTF-8" standalone="no"?>
<svg
   xmlns:dc="http://purl.org/dc/elements/1.1/"
   xmlns:cc="http://creativecommons.org/ns#"
   xmlns:rdf="http://www.w3.org/1999/02/22-rdf-syntax-ns#"
   xmlns:svg="http://www.w3.org/2000/svg"
   xmlns="http://www.w3.org/2000/svg"
   xmlns:sodipodi="http://sodipodi.sourceforge.net/DTD/sodipodi-0.dtd"
   xmlns:inkscape="http://www.inkscape.org/namespaces/inkscape"
   sodipodi:docname="right_baseplate.svg"
   id="svg14"
   version="1.1"
   viewBox="22 -21 108.97198 127.81248"
   height="127.81248mm"
   width="108.97198mm"
   inkscape:version="1.0.1 (c497b03c, 2020-09-10)">
  <metadata
     id="metadata20">
    <rdf:RDF>
      <cc:Work
         rdf:about="">
        <dc:format>image/svg+xml</dc:format>
        <dc:type
           rdf:resource="http://purl.org/dc/dcmitype/StillImage" />
        <dc:title>OpenSCAD Model</dc:title>
      </cc:Work>
    </rdf:RDF>
  </metadata>
  <defs
     id="defs18">
    <marker
       id="Arrow1Lstart"
       orient="auto"
       refX="0"
       refY="0"
       style="overflow:visible"
       inkscape:stockid="Arrow1Lstart">
      <path
         d="M 0,0 5,-5 -12.5,0 5,5 Z"
         transform="matrix(0.8,0,0,0.8,10,0)"
         style="fill-rule:evenodd;stroke:#000000;stroke-width:1pt;marker-start:none"
         id="path1428" />
    </marker>
    <marker
       id="Arrow1Lend"
       orient="auto"
       refX="0"
       refY="0"
       style="overflow:visible"
       inkscape:stockid="Arrow1Lend">
      <path
         d="M 0,0 5,-5 -12.5,0 5,5 Z"
         transform="matrix(-0.8,0,0,-0.8,-10,0)"
         style="fill-rule:evenodd;stroke:#000000;stroke-width:1pt;marker-start:none"
         id="path1431" />
    </marker>
  </defs>
  <sodipodi:namedview
     pagecolor="#ffffff"
     bordercolor="#666666"
     borderopacity="1"
     objecttolerance="10"
     gridtolerance="10"
     guidetolerance="10"
     inkscape:pageopacity="0"
     inkscape:pageshadow="2"
     inkscape:window-width="1440"
     inkscape:window-height="855"
     id="namedview16"
     showgrid="false"
     inkscape:snap-midpoints="true"
     inkscape:zoom="1.120883"
     inkscape:cx="202.80481"
     inkscape:cy="263.0745"
     inkscape:window-x="574"
     inkscape:window-y="1463"
     inkscape:window-maximized="0"
     inkscape:current-layer="svg14"
     inkscape:document-rotation="0"
     inkscape:document-units="mm"
     fit-margin-top="0"
     fit-margin-left="0"
     fit-margin-right="0"
     fit-margin-bottom="0" />
  <title
     id="title10">OpenSCAD Model</title>
  <path
     d="M 48.458333,-7.770834 H 130.45833"
     marker-start="url(#Arrow1Lstart)"
     marker-end="url(#Arrow1Lend)"
     stroke-width="0.264583"
     id="path1437"
     style="fill:none;stroke:#000000" />
  <path
     d="M 48.458333,-21 V 106.29883"
     stroke-width="0.132292"
     id="path1439"
     style="fill:none;stroke:#000000" />
  <path
     d="M 130.45833,-21 V 106.29883"
     stroke-width="0.132292"
     id="path1441"
     style="fill:none;stroke:#000000" />
  <path
     d="M 35.229166,5.458333 V 106.29883"
     marker-start="url(#Arrow1Lstart)"
     marker-end="url(#Arrow1Lend)"
     stroke-width="0.264583"
     id="path1443"
     style="fill:none;stroke:#000000" />
  <path
     d="M 22,5.458333 H 130.45833"
     stroke-width="0.132292"
     id="path1445"
     style="fill:none;stroke:#000000" />
  <path
     d="M 22,106.29883 H 130.45833"
     stroke-width="0.132292"
     id="path1447"
     style="fill:none;stroke:#000000" />
  <path
     d="m 88.608333,72.248033 -0.85,-1.4722 0.85,-1.4722 h 1.7 l 0.85,1.4722 -0.85,1.4722 z"
     id="path52"
     style="fill:none;stroke:#00ff00;stroke-width:0.264583;stroke-miterlimit:4;stroke-dasharray:none" />
  <path
     d="m 51.608333,67.248033 -0.85,-1.4722 0.85,-1.4722 h 1.7 l 0.85,1.4722 -0.85,1.4722 z"
     id="path50"
     style="fill:none;stroke:#00ff00;stroke-width:0.264583;stroke-miterlimit:4;stroke-dasharray:none" />
  <path
     d="m 50.608333,24.248073 -0.85,-1.47224 0.85,-1.47223 h 1.7 l 0.85,1.47223 -0.85,1.47224 z"
     id="path46"
     style="fill:none;stroke:#00ff00;stroke-width:0.264583;stroke-miterlimit:4;stroke-dasharray:none" />
  <path
     d="m 97.608333,22.248073 -0.85,-1.47224 0.85,-1.47223 h 1.7 l 0.849997,1.47223 -0.849997,1.47224 z"
     id="path44"
     style="fill:none;stroke:#00ff00;stroke-width:0.264583;stroke-miterlimit:4;stroke-dasharray:none" />
  <path
     d="m 104.01273,102.46483 -0.2952,-1.6742 1.3023,-1.092697 1.5975,0.581397 0.2952,1.6742 -1.3023,1.0927 z"
     id="path38"
     style="fill:none;stroke:#ff00ff;stroke-width:0.264583;stroke-miterlimit:4;stroke-dasharray:none" />
  <path
     d="m 86.067733,96.636033 -0.2952,-1.6742 1.3023,-1.0927 1.5974,0.5814 0.2953,1.6742 -1.3023,1.0927 z"
     id="path36"
     style="fill:none;stroke:#ff00ff;stroke-width:0.264583;stroke-miterlimit:4;stroke-dasharray:none" />
  <path
     d="m 101.38863,83.780233 -0.2952,-1.6742 1.3023,-1.0927 1.5974,0.5814 0.2952,1.6742 -1.3022,1.0927 z"
     id="path32"
     style="fill:none;stroke:#ff00ff;stroke-width:0.264583;stroke-miterlimit:4;stroke-dasharray:none" />
  <path
     id="path26"
     style="fill:none;stroke:#0000ff;stroke-width:0.264583;stroke-linecap:butt;stroke-linejoin:miter;stroke-miterlimit:4;stroke-dasharray:none;stroke-opacity:1"
     d="m 130.00033,57.634733 0.458,-1.8589 v -40 l -0.458,-1.8589 -1.27,-1.433 -1.79,-0.6789 -43.831198,-6.0661 -1.769199,-0.2806 h -14.5327 l -10.7506,3 -1.7244,0.8192 -1.5,1.0898 -1.0249,1.6591 -0.573,1.7633 v 6.13294 h -0.7031 l -1.5,1.08981 -0.5729,1.76335 0.5729,1.76337 1.5,1.08981 h 0.7031 v 12.13292 l 0.716,25.1607 h -0.4191 l -1.5,1.0898 -0.5729,1.7634 0.5729,1.7634 1.5,1.0898 h 0.5814 l 0.3457,12.1468 1.1459,3.5267 13.3152,12.6253 1.5,1.0898 1.5914,0.8304 1.8541,-10e-7 12.9033,0.895301 1.7713,0.726697 17.944997,5.8288 1.9061,-0.1796 1.09,-0.4404 1.6042,-1.0449 0.9349,-1.6707 z"
     sodipodi:nodetypes="ccccccccccccccccccccccccccccccccccccccccccc" />
  <text
     xml:space="preserve"
     style="font-style:normal;font-weight:normal;font-size:10.5833px;line-height:1.25;font-family:sans-serif;fill:#000000;fill-opacity:1;stroke:none;stroke-width:0.264583"
     x="64.753899"
     y="-9.4504509"
     id="text1598"><tspan
       sodipodi:role="line"
       id="tspan1596"
       x="64.753899"
       y="-9.4504509"
       style="stroke-width:0.264583">83.027mm</tspan></text>
  <text
     xml:space="preserve"
     style="font-style:normal;font-weight:normal;font-size:10.5833px;line-height:1.25;font-family:sans-serif;fill:#000000;fill-opacity:1;stroke:none;stroke-width:0.264583"
     x="-84.577484"
     y="31.456066"
     id="text1689"
     transform="rotate(-90)"><tspan
       sodipodi:role="line"
       id="tspan1687"
       x="-84.577484"
       y="31.456066"
       style="stroke-width:0.264583">101.868mm</tspan></text>
</svg>
