  0
SECTION
  2
HEADER
  9
$ACADVER
  1
AC1014
  9
$HANDSEED
  5
FFFF
  9
$MEASUREMENT
 70
     1
  0
ENDSEC
  0
SECTION
  2
TABLES
  0
TABLE
  2
VPORT
  5
8
330
0
100
AcDbSymbolTable
 70
     4
  0
VPORT
  5
2E
330
8
100
AcDbSymbolTableRecord
100
AcDbViewportTableRecord
  2
*ACTIVE
 70
     0
 10
0.0
 20
0.0
 11
1.0
 21
1.0
 12
210.0
 22
148.5
 13
0.0
 23
0.0
 14
10.0
 24
10.0
 15
10.0
 25
10.0
 16
0.0
 26
0.0
 36
1.0
 17
0.0
 27
0.0
 37
0.0
 40
341.0
 41
1.24
 42
50.0
 43
0.0
 44
0.0
 50
0.0
 51
0.0
 71
     0
 72
   100
 73
     1
 74
     3
 75
     0
 76
     0
 77
     0
 78
     0
  0
ENDTAB
  0
TABLE
  2
LTYPE
  5
5
330
0
100
AcDbSymbolTable
 70
     1
  0
LTYPE
  5
14
330
5
100
AcDbSymbolTableRecord
100
AcDbLinetypeTableRecord
  2
BYBLOCK
 70
     0
  3

 72
    65
 73
     0
 40
0.0
  0
LTYPE
  5
15
330
5
100
AcDbSymbolTableRecord
100
AcDbLinetypeTableRecord
  2
BYLAYER
 70
     0
  3

 72
    65
 73
     0
 40
0.0
  0
LTYPE
  5
16
330
5
100
AcDbSymbolTableRecord
100
AcDbLinetypeTableRecord
  2
CONTINUOUS
 70
     0
  3
Solid line
 72
    65
 73
     0
 40
0.0
  0
ENDTAB
  0
TABLE
  2
LAYER
  5
2
100
AcDbSymbolTable
 70
1
  0
LAYER
  5
50
100
AcDbSymbolTableRecord
100
AcDbLayerTableRecord
  2
0
 70
0
  6
CONTINUOUS
  0
ENDTAB
  0
TABLE
  2
STYLE
  5
3
330
0
100
AcDbSymbolTable
 70
     1
  0
STYLE
  5
11
330
3
100
AcDbSymbolTableRecord
100
AcDbTextStyleTableRecord
  2
STANDARD
 70
     0
 40
0.0
 41
1.0
 50
0.0
 71
     0
 42
2.5
  3
txt
  4

  0
ENDTAB
  0
TABLE
  2
VIEW
  5
6
330
0
100
AcDbSymbolTable
 70
     0
  0
ENDTAB
  0
TABLE
  2
UCS
  5
7
330
0
100
AcDbSymbolTable
 70
     0
  0
ENDTAB
  0
TABLE
  2
APPID
  5
9
330
0
100
AcDbSymbolTable
 70
     2
  0
APPID
  5
12
330
9
100
AcDbSymbolTableRecord
100
AcDbRegAppTableRecord
  2
ACAD
 70
     0
  0
ENDTAB
  0
TABLE
  2
DIMSTYLE
  5
A
330
0
100
AcDbSymbolTable
 70
     1
  0
DIMSTYLE
105
27
330
A
100
AcDbSymbolTableRecord
100
AcDbDimStyleTableRecord
  2
ISO-25
 70
     0
  3

  4

  5

  6

  7

 40
1.0
 41
2.5
 42
0.625
 43
3.75
 44
1.25
 45
0.0
 46
0.0
 47
0.0
 48
0.0
140
2.5
141
2.5
142
0.0
143
0.03937007874016
144
1.0
145
0.0
146
1.0
147
0.625
 71
     0
 72
     0
 73
     0
 74
     0
 75
     0
 76
     0
 77
     1
 78
     8
170
     0
171
     3
172
     1
173
     0
174
     0
175
     0
176
     0
177
     0
178
     0
270
     2
271
     2
272
     2
273
     2
274
     3
340
11
275
     0
280
     0
281
     0
282
     0
283
     0
284
     8
285
     0
286
     0
287
     3
288
     0
  0
ENDTAB
  0
TABLE
  2
BLOCK_RECORD
  5
1
330
0
100
AcDbSymbolTable
 70
     1
  0
BLOCK_RECORD
  5
1F
330
1
100
AcDbSymbolTableRecord
100
AcDbBlockTableRecord
  2
*MODEL_SPACE
  0
BLOCK_RECORD
  5
1B
330
1
100
AcDbSymbolTableRecord
100
AcDbBlockTableRecord
  2
*PAPER_SPACE
  0
ENDTAB
  0
ENDSEC
  0
SECTION
  2
BLOCKS
  0
BLOCK
  5
20
330
1F
100
AcDbEntity
  8
0
100
AcDbBlockBegin
  2
*MODEL_SPACE
 70
     0
 10
0.0
 20
0.0
 30
0.0
  3
*MODEL_SPACE
  1

  0
ENDBLK
  5
21
330
1F
100
AcDbEntity
  8
0
100
AcDbBlockEnd
  0
BLOCK
  5
1C
330
1B
100
AcDbEntity
 67
     1
  8
0
100
AcDbBlockBegin
  2
*PAPER_SPACE
  1

  0
ENDBLK
  5
1D
330
1B
100
AcDbEntity
 67
     1
  8
0
100
AcDbBlockEnd
  0
ENDSEC
  0
SECTION
  2
ENTITIES
  0
LWPOLYLINE
  5
100
100
AcDbEntity
  8
0
 62
3
100
AcDbPolyline
 90
6
 70
1
 10
62.150000
 20
55.527800
 30
0.0
 10
61.300000
 20
57.000000
 30
0.0
 10
62.150000
 20
58.472200
 30
0.0
 10
63.850000
 20
58.472200
 30
0.0
 10
64.700000
 20
57.000000
 30
0.0
 10
63.850000
 20
55.527800
 30
0.0
  0
LWPOLYLINE
  5
101
100
AcDbEntity
  8
0
 62
3
100
AcDbPolyline
 90
6
 70
1
 10
25.150000
 20
60.527800
 30
0.0
 10
24.300000
 20
62.000000
 30
0.0
 10
25.150000
 20
63.472200
 30
0.0
 10
26.850000
 20
63.472200
 30
0.0
 10
27.700000
 20
62.000000
 30
0.0
 10
26.850000
 20
60.527800
 30
0.0
  0
LWPOLYLINE
  5
102
100
AcDbEntity
  8
0
 62
3
100
AcDbPolyline
 90
6
 70
1
 10
24.150000
 20
103.527760
 30
0.0
 10
23.300000
 20
105.000000
 30
0.0
 10
24.150000
 20
106.472230
 30
0.0
 10
25.850000
 20
106.472230
 30
0.0
 10
26.700000
 20
105.000000
 30
0.0
 10
25.850000
 20
103.527760
 30
0.0
  0
LWPOLYLINE
  5
103
100
AcDbEntity
  8
0
 62
3
100
AcDbPolyline
 90
6
 70
1
 10
71.150000
 20
105.527760
 30
0.0
 10
70.300000
 20
107.000000
 30
0.0
 10
71.150000
 20
108.472230
 30
0.0
 10
72.850000
 20
108.472230
 30
0.0
 10
73.700000
 20
107.000000
 30
0.0
 10
72.850000
 20
105.527760
 30
0.0
  0
LWPOLYLINE
  5
104
100
AcDbEntity
  8
0
 62
5
100
AcDbPolyline
 90
29
 70
0
 10
56.650800
 20
122.036900
 30
0.0
 10
54.881600
 20
122.317500
 30
0.0
 10
40.348900
 20
122.317500
 30
0.0
 10
29.598300
 20
119.317500
 30
0.0
 10
27.873900
 20
118.498300
 30
0.0
 10
26.373900
 20
117.408500
 30
0.0
 10
25.349000
 20
115.749400
 30
0.0
 10
24.776000
 20
113.986100
 30
0.0
 10
24.776000
 20
107.853160
 30
0.0
 10
24.072900
 20
107.853160
 30
0.0
 10
22.572900
 20
106.763350
 30
0.0
 10
22.000000
 20
105.000000
 30
0.0
 10
22.572900
 20
103.236630
 30
0.0
 10
24.072900
 20
102.146820
 30
0.0
 10
24.776000
 20
102.146820
 30
0.0
 10
24.776000
 20
90.013900
 30
0.0
 10
25.492000
 20
64.853200
 30
0.0
 10
25.072900
 20
64.853200
 30
0.0
 10
23.572900
 20
63.763400
 30
0.0
 10
23.000000
 20
62.000000
 30
0.0
 10
23.572900
 20
60.236600
 30
0.0
 10
25.072900
 20
59.146800
 30
0.0
 10
25.654300
 20
59.146800
 30
0.0
 10
26.000000
 20
47.000000
 30
0.0
 10
27.145900
 20
43.473300
 30
0.0
 10
40.461100
 20
30.848000
 30
0.0
 10
41.961100
 20
29.758200
 30
0.0
 10
43.552500
 20
28.927800
 30
0.0
 10
45.406600
 20
28.927800
 30
0.0
  0
LWPOLYLINE
  5
105
100
AcDbEntity
  8
0
 62
1
100
AcDbPolyline
 90
8
 70
0
 10
45.406600
 20
28.927800
 30
0.0
 10
46.816600
 20
29.041400
 30
0.0
 10
48.316600
 20
30.131200
 30
0.0
 10
65.921300
 20
44.903400
 30
0.0
 10
66.702100
 20
45.924900
 30
0.0
 10
67.275000
 20
47.688200
 30
0.0
 10
67.178800
 20
49.293400
 30
0.0
 10
66.605800
 20
51.056700
 30
0.0
  0
LWPOLYLINE
  5
106
100
AcDbEntity
  8
0
 62
6
100
AcDbPolyline
 90
6
 70
1
 10
77.554400
 20
25.311000
 30
0.0
 10
77.259200
 20
26.985200
 30
0.0
 10
78.561500
 20
28.077900
 30
0.0
 10
80.159000
 20
27.496500
 30
0.0
 10
80.454200
 20
25.822300
 30
0.0
 10
79.151900
 20
24.729600
 30
0.0
  0
LWPOLYLINE
  5
107
100
AcDbEntity
  8
0
 62
6
100
AcDbPolyline
 90
6
 70
1
 10
59.609400
 20
31.139800
 30
0.0
 10
59.314200
 20
32.814000
 30
0.0
 10
60.616500
 20
33.906700
 30
0.0
 10
62.213900
 20
33.325300
 30
0.0
 10
62.509200
 20
31.651100
 30
0.0
 10
61.206900
 20
30.558400
 30
0.0
  0
LWPOLYLINE
  5
108
100
AcDbEntity
  8
0
 62
6
100
AcDbPolyline
 90
6
 70
1
 10
74.930300
 20
43.995600
 30
0.0
 10
74.635100
 20
45.669800
 30
0.0
 10
75.937400
 20
46.762500
 30
0.0
 10
77.534800
 20
46.181100
 30
0.0
 10
77.830000
 20
44.506900
 30
0.0
 10
76.527800
 20
43.414200
 30
0.0
  0
LWPOLYLINE
  5
109
100
AcDbEntity
  8
0
 62
5
100
AcDbPolyline
 90
7
 70
0
 10
58.309900
 20
28.032500
 30
0.0
 10
60.081200
 20
27.305800
 30
0.0
 10
78.026200
 20
21.477000
 30
0.0
 10
79.932300
 20
21.656600
 30
0.0
 10
81.022300
 20
22.097000
 30
0.0
 10
82.626500
 20
23.141900
 30
0.0
 10
83.561400
 20
24.812600
 30
0.0
  0
LWPOLYLINE
  5
10a
100
AcDbEntity
  8
0
 62
1
100
AcDbPolyline
 90
8
 70
0
 10
75.482600
 20
49.997900
 30
0.0
 10
73.674900
 20
49.367300
 30
0.0
 10
58.354000
 20
36.511500
 30
0.0
 10
57.046400
 20
35.113100
 30
0.0
 10
56.423500
 20
34.116100
 30
0.0
 10
55.915600
 20
32.270200
 30
0.0
 10
56.323700
 20
30.399700
 30
0.0
 10
58.309900
 20
28.032500
 30
0.0
  0
LWPOLYLINE
  5
10b
100
AcDbEntity
  8
0
 62
5
100
AcDbPolyline
 90
6
 70
0
 10
103.542000
 20
70.141100
 30
0.0
 10
104.000000
 20
72.000000
 30
0.0
 10
104.000000
 20
112.000000
 30
0.0
 10
103.542000
 20
113.858900
 30
0.0
 10
102.272000
 20
115.291900
 30
0.0
 10
100.482000
 20
115.970800
 30
0.0
  0
LWPOLYLINE
  5
10c
100
AcDbEntity
  8
0
 62
5
100
AcDbPolyline
 90
2
 70
0
 10
45.406600
 20
28.927802
 30
0.0
 10
58.309900
 20
28.032499
 30
0.0
  0
LWPOLYLINE
  5
10d
100
AcDbEntity
  8
0
 62
7
100
AcDbPolyline
 90
34
 70
1
 10
75.482599
 20
49.997901
 30
0.0
 10
66.605800
 20
51.056700
 30
0.0
 10
65.673700
 20
52.897650
 30
0.0
 10
64.741600
 20
54.738600
 30
0.0
 10
65.427000
 20
55.236600
 30
0.0
 10
66.000000
 20
57.000000
 30
0.0
 10
65.427000
 20
58.763400
 30
0.0
 10
63.927000
 20
59.853200
 30
0.0
 10
62.152000
 20
59.853200
 30
0.0
 10
54.585200
 20
74.797800
 30
0.0
 10
64.854100
 20
83.473300
 30
0.0
 10
69.854100
 20
88.473300
 30
0.0
 10
74.854100
 20
103.473270
 30
0.0
 10
76.000000
 20
107.000000
 30
0.0
 10
74.854100
 20
110.526700
 30
0.0
 10
71.854100
 20
112.706300
 30
0.0
 10
56.650799
 20
122.036900
 30
0.0
 10
100.482000
 20
115.970800
 30
0.0
 10
98.581600
 20
115.740100
 30
0.0
 10
97.006000
 20
114.652500
 30
0.0
 10
96.116200
 20
112.957300
 30
0.0
 10
96.116200
 20
71.042700
 30
0.0
 10
97.006000
 20
69.347500
 30
0.0
 10
98.581600
 20
68.259900
 30
0.0
 10
100.482000
 20
68.029200
 30
0.0
 10
102.272000
 20
68.708100
 30
0.0
 10
103.542000
 20
70.141100
 30
0.0
 10
83.561400
 20
24.812600
 30
0.0
 10
83.612800
 20
26.726500
 30
0.0
 10
83.530800
 20
27.899200
 30
0.0
 10
80.906700
 20
46.583800
 30
0.0
 10
80.062800
 20
48.302300
 30
0.0
 10
78.516900
 20
49.431700
 30
0.0
 10
77.376300
 20
49.716100
 30
0.0
  0
ENDSEC
  0
SECTION
  2
OBJECTS
  0
DICTIONARY
  5
C
330
0
100
AcDbDictionary
  3
ACAD_GROUP
350
D
  3
ACAD_MLINESTYLE
350
17
  0
DICTIONARY
  5
D
330
C
100
AcDbDictionary
  0
DICTIONARY
  5
1A
330
C
100
AcDbDictionary
  0
DICTIONARY
  5
17
330
C
100
AcDbDictionary
  3
STANDARD
350
18
  0
DICTIONARY
  5
19
330
C
100
AcDbDictionary
  0
ENDSEC
  0
EOF
