0
SECTION
2
HEADER
9
$INSUNITS
70
4
9
$ACADVER
1
AC1014
9
$HANDSEED
5
FFFF
0
ENDSEC
0
SECTION
2
TABLES
0
TABLE
2
VPORT
5
8
100
AcDbSymbolTable
0
ENDTAB
0
TABLE
2
LTYPE
5
5
100
AcDbSymbolTable
0
LTYPE
5
14
100
AcDbSymbolTableRecord
100
AcDbLinetypeTableRecord
2
BYBLOCK
70
0
0
LTYPE
5
15
100
AcDbSymbolTableRecord
100
AcDbLinetypeTableRecord
2
BYLAYER
70
0
0
ENDTAB
0
TABLE
2
LAYER
5
2
100
AcDbSymbolTable
70
2
0
LAYER
5
50
100
AcDbSymbolTableRecord
100
AcDbLayerTableRecord
2
0
70
0
6
CONTINUOUS
0
ENDTAB
0
TABLE
2
STYLE
5
3
100
AcDbSymbolTable
70
1
0
STYLE
5
11
100
AcDbSymbolTableRecord
100
AcDbTextStyleTableRecord
2
STANDARD
70
0
0
ENDTAB
0
TABLE
2
VIEW
5
6
100
AcDbSymbolTable
70
0
0
ENDTAB
0
TABLE
2
UCS
5
7
100
AcDbSymbolTable
70
0
0
ENDTAB
0
TABLE
2
APPID
5
9
100
AcDbSymbolTable
70
2
0
APPID
5
12
100
AcDbSymbolTableRecord
100
AcDbRegAppTableRecord
2
ACAD
70
0
0
ENDTAB
0
TABLE
2
DIMSTYLE
5
A
100
AcDbSymbolTable
70
1
0
ENDTAB
0
TABLE
2
BLOCK_RECORD
5
1
100
AcDbSymbolTable
70
1
0
BLOCK_RECORD
5
1F
100
AcDbSymbolTableRecord
100
AcDbBlockTableRecord
2
*MODEL_SPACE
0
BLOCK_RECORD
5
1B
100
AcDbSymbolTableRecord
100
AcDbBlockTableRecord
2
*PAPER_SPACE
0
ENDTAB
0
ENDSEC
0
SECTION
2
BLOCKS
0
BLOCK
5
20
100
AcDbEntity
100
AcDbBlockBegin
2
*MODEL_SPACE
0
ENDBLK
5
21
100
AcDbEntity
100
AcDbBlockEnd
0
BLOCK
5
1C
100
AcDbEntity
100
AcDbBlockBegin
2
*PAPER_SPACE
0
ENDBLK
5
1D
100
AcDbEntity
100
AcDbBlockEnd
0
ENDSEC
0
SECTION
2
ENTITIES
0
ARC
5
100
100
AcDbEntity
8
0
100
AcDbCircle
10
-67.458336134358746
20
-61.981333679606109
30
0
40
1.5000013033549031
210
0
220
0
230
-1
100
AcDbArc
50
-180
51
0
0
ARC
5
101
100
AcDbEntity
8
0
100
AcDbCircle
10
-67.458336134358746
20
-61.981333679606109
30
0
40
1.5000013033549031
210
0
220
0
230
-1
100
AcDbArc
50
0
51
180
0
ARC
5
102
100
AcDbEntity
8
0
100
AcDbCircle
10
-54.2257822390442
20
-50.069657654215476
30
0
40
1.5000013033549031
210
0
220
0
230
-1
100
AcDbArc
50
-180
51
0
0
ARC
5
103
100
AcDbEntity
8
0
100
AcDbCircle
10
-54.2257822390442
20
-50.069657654215476
30
0
40
1.5000013033549031
210
0
220
0
230
-1
100
AcDbArc
50
0
51
180
0
ARC
5
104
100
AcDbEntity
8
0
100
AcDbCircle
10
-58.458332351450615
20
-111.98131791219075
30
0
40
1.5000013033549031
210
0
220
0
230
-1
100
AcDbArc
50
-180
51
0
0
ARC
5
105
100
AcDbEntity
8
0
100
AcDbCircle
10
-58.458332351450615
20
-111.98131791219075
30
0
40
1.5000013033549031
210
0
220
0
230
-1
100
AcDbArc
50
0
51
180
0
LINE
5
106
100
AcDbEntity
8
0
100
AcDbLine
10
58.482204440836597
20
-98.047543091227212
30
0
11
43.570759967569998
21
-111.43493653401693
31
0
0
ARC
5
107
100
AcDbEntity
8
0
100
AcDbCircle
10
-44.906850252815921
20
-112.92317793498073
30
0
40
1.9999999294678661
210
0
220
-0
230
-1
100
AcDbArc
50
-82.121209157761058
51
48.083631507361147
0
LINE
5
108
100
AcDbEntity
8
0
100
AcDbLine
10
44.632694502278653
20
-114.90429841145833
30
0
11
55.972869558736178
21
-116.47371166015624
31
0
0
ARC
5
109
100
AcDbEntity
8
0
100
AcDbCircle
10
-56.01396851717233
20
-116.1765402826083
30
0
40
0.29999992003042142
210
0
220
0
230
-1
100
AcDbArc
50
126.00623242435191
51
277.87408743694999
0
LINE
5
110
100
AcDbEntity
8
0
100
AcDbLine
10
56.190330445373547
20
-115.93385443155924
30
0
11
55.604247033203144
21
-115.50804062947591
31
0
0
LINE
5
111
100
AcDbEntity
8
0
100
AcDbLine
10
55.604247033203144
20
-115.50804062947591
30
0
11
54.458346370463062
21
-111.98131791219076
31
0
0
LINE
5
112
100
AcDbEntity
8
0
100
AcDbLine
10
54.458346370463062
20
-111.98131791219076
30
0
11
55.604247033203144
21
-108.45459519490559
31
0
0
LINE
5
113
100
AcDbEntity
8
0
100
AcDbLine
10
55.604247033203144
20
-108.45459519490559
30
0
11
58.967236204549167
21
-98.365643829752599
31
0
0
ARC
5
114
100
AcDbEntity
8
0
100
AcDbCircle
10
-58.682631773916079
20
-98.270774076499592
30
0
40
0.30000531433797917
210
0
220
0
230
-1
100
AcDbArc
50
48.08100509756116
51
198.43524047832389
0
ARC
5
115
100
AcDbEntity
8
0
100
AcDbCircle
10
-105.45833315412651
20
-109.98134308919271
30
0
40
1.5000002940495882
210
0
220
0
230
-1
100
AcDbArc
50
-180
51
0
0
ARC
5
116
100
AcDbEntity
8
0
100
AcDbCircle
10
-105.45833315412651
20
-109.98134308919271
30
0
40
1.5000002940495882
210
0
220
0
230
-1
100
AcDbArc
50
0
51
180
0
LWPOLYLINE
5
117
100
AcDbEntity
8
0
100
AcDbPolyline
90
8
70
1
43
0.0
10
61.881811209126802
20
-91.872919983317047
10
45.049077355468761
20
-82.712917084147136
10
45.049077355468761
20
-82.712884786376932
42
-0.8161484931772488
10
46.194437030558277
20
-78.965148427734363
10
73.025740976735449
20
-81.517318227539036
42
-0.66421649516099623
10
73.190940033996597
20
-82.045128387858057
10
65.604234190389008
20
-88.454620880533838
10
62.23733698885092
20
-91.821534230957013
42
-0.33243156725429901
0
ARC
5
118
100
AcDbEntity
8
0
100
AcDbCircle
10
-104.45833363096366
20
-66.981319183756497
30
0
40
1.5000002940495882
210
0
220
0
230
-1
100
AcDbArc
50
-180
51
0
0
ARC
5
119
100
AcDbEntity
8
0
100
AcDbCircle
10
-104.45833363096366
20
-66.981319183756497
30
0
40
1.5000002940495882
210
0
220
0
230
-1
100
AcDbArc
50
0
51
180
0
ARC
5
120
100
AcDbEntity
8
0
100
AcDbCircle
10
-69.546635265752172
20
-37.212378545967155
30
0
40
1.5000000417232531
210
0
220
-0
230
-1
100
AcDbArc
50
-0.057561741580975205
51
180.05756174158097
0
ARC
5
121
100
AcDbEntity
8
0
100
AcDbCircle
10
-69.546635265752172
20
-37.215392471285412
30
0
40
1.5000000417232531
210
0
220
0
230
-1
100
AcDbArc
50
-180.05756174158097
51
0.057561741580959759
0
ARC
5
122
100
AcDbEntity
8
0
100
AcDbCircle
10
-51.601636858388275
20
-31.385074626057925
30
0
40
1.5000013033549031
210
0
220
0
230
-1
100
AcDbArc
50
-180
51
0
0
ARC
5
123
100
AcDbEntity
8
0
100
AcDbCircle
10
-51.601636858388275
20
-31.385074626057925
30
0
40
1.5000013033549031
210
0
220
0
230
-1
100
AcDbArc
50
0
51
180
0
LWPOLYLINE
5
124
100
AcDbEntity
8
0
100
AcDbPolyline
90
14
70
1
43
0.0
10
39.925003818278
20
-70.652251444905573
10
62.979095653299979
20
-58.740510823974589
10
63.000307213867195
20
-58.782433329671207
10
64.503526182576522
20
-57.996596283365875
42
-0.41803599169879296
10
64.910163183614117
20
-58.126950083821598
10
65.716735398376485
20
-59.719940704752588
10
65.031336342895514
20
-60.21794002319335
10
64.45833756487022
20
-61.981365977376292
10
65.031336342895514
20
-63.744759633789052
10
66.531337646250421
20
-64.834550995279926
10
68.306338313822451
20
-64.83455099527994
10
74.558520479604098
20
-77.182763682454421
42
-0.59069889415184662
10
74.262462969228125
20
-77.616910309244787
10
40.653689960245778
20
-74.420109314371729
42
-0.74838411370909885
0
LWPOLYLINE
5
125
100
AcDbEntity
8
0
100
AcDbPolyline
90
12
70
1
43
0.0
10
59.444387312337255
20
-56.064446777750632
10
44.55576928814699
20
-63.757194275309232
10
44.555777362589531
20
-63.757226573079407
42
-0.70746490259667527
10
41.807616618876153
20
-61.173695638427724
10
48.278822075927735
20
-46.492937988688126
42
-0.7550289214784246
10
48.850419938171399
20
-46.572196716715482
10
49.551636826599136
20
-51.56510900919595
10
50.395537189249694
20
-53.283641062825502
10
51.941437661254888
20
-54.413029490559886
10
53.082041489685068
20
-54.697443654785133
10
54.975740499898286
20
-54.979209401855449
10
59.342213316365573
20
-55.500043243815085
42
-0.73905702423067055
0
LINE
5
126
100
AcDbEntity
8
0
100
AcDbLine
10
37.79444911043295
20
-111.24531632527669
30
0
11
56.845183884704596
21
-94.141709147542301
31
0
0
ARC
5
127
100
AcDbEntity
8
0
100
AcDbCircle
10
-56.644778159437443
20
-93.918466012601002
30
0
40
0.29999992003041315
210
0
220
0
230
-1
100
AcDbArc
50
118.55139215935928
51
228.08562602276513
0
LINE
5
128
100
AcDbEntity
8
0
100
AcDbLine
10
56.788162171447766
20
-93.654949453124985
30
0
11
37.41431242982992
21
-83.112149821370437
31
0
0
ARC
5
129
100
AcDbEntity
8
0
100
AcDbCircle
10
-36.458339687780295
20
-84.868884244762143
30
0
40
1.9999999294678374
210
0
220
-0
230
-1
100
AcDbArc
50
-0.00016880337880326293
51
118.55397221537261
0
LINE
5
130
100
AcDbEntity
8
0
100
AcDbLine
10
34.458339758321138
20
-84.868890137125632
30
0
11
34.458339758321138
21
-109.75709967081706
31
0
0
ARC
5
131
100
AcDbEntity
8
0
100
AcDbCircle
10
-36.458339687788943
20
-109.7570993545864
30
0
40
1.9999945352747024
210
0
220
-0
230
-1
100
AcDbArc
50
228.08275599507115
51
359.99999092426168
0
LINE
5
132
100
AcDbEntity
8
0
100
AcDbLine
10
26.458335498575853
20
-13.229173798014301
30
0
11
108.45833475153098
21
-13.229173798014301
31
0
0
LINE
5
133
100
AcDbEntity
8
0
100
AcDbLine
10
26.458335498575853
20
-7.1313476340151293e-06
30
0
11
26.458335498575853
21
-127.29882610107423
31
0
0
LINE
5
134
100
AcDbEntity
8
0
100
AcDbLine
10
108.45833475153098
20
-7.1313476340151293e-06
30
0
11
108.45833475153098
21
-127.29882610107423
31
0
0
LINE
5
135
100
AcDbEntity
8
0
100
AcDbLine
10
13.229168831909186
20
-26.458340464680973
30
0
11
13.229168831909186
21
-127.29882610107423
31
0
0
LINE
5
136
100
AcDbEntity
8
0
100
AcDbLine
10
2.1652425166015142e-06
20
-26.458340464680973
30
0
11
108.45833475153098
21
-26.458340464680973
31
0
0
LINE
5
137
100
AcDbEntity
8
0
100
AcDbLine
10
2.1652425166015142e-06
20
-127.29882610107423
30
0
11
108.45833475153098
21
-127.29882610107423
31
0
0
LINE
5
138
100
AcDbEntity
8
0
100
AcDbLine
10
26.458335498575853
20
-13.229173798014301
30
0
11
108.45833475153098
21
-13.229173798014301
31
0
0
LINE
5
139
100
AcDbEntity
8
0
100
AcDbLine
10
26.458335498575853
20
-7.1313476340151293e-06
30
0
11
26.458335498575853
21
-127.29882610107423
31
0
0
LINE
5
140
100
AcDbEntity
8
0
100
AcDbLine
10
108.45833475153098
20
-7.1313476340151293e-06
30
0
11
108.45833475153098
21
-127.29882610107423
31
0
0
LINE
5
141
100
AcDbEntity
8
0
100
AcDbLine
10
13.229168831909186
20
-26.458340464680973
30
0
11
13.229168831909186
21
-127.29882610107423
31
0
0
LINE
5
142
100
AcDbEntity
8
0
100
AcDbLine
10
2.1652425166015142e-06
20
-26.458340464680973
30
0
11
108.45833475153098
21
-26.458340464680973
31
0
0
LINE
5
143
100
AcDbEntity
8
0
100
AcDbLine
10
2.1652425166015142e-06
20
-127.29882610107423
30
0
11
108.45833475153098
21
-127.29882610107423
31
0
0
LWPOLYLINE
5
144
100
AcDbEntity
8
0
100
AcDbPolyline
90
42
70
1
43
0.0
10
73.807536764546725
20
-127.01822307373048
10
75.57673594514975
20
-127.29882610107423
10
90.109448690816265
20
-127.29879380330402
10
100.86005015731305
20
-124.29881541992188
10
102.58445031206261
20
-123.47961477701823
10
104.08444959680686
20
-122.38979111775714
10
105.10934868216962
20
-120.730686961263
10
105.68234947880556
20
-118.9673901981608
10
105.68234947880556
20
-112.83446351155598
10
106.38544973095705
20
-112.83446351155598
10
107.88544901570133
20
-111.74463985229492
10
108.45834888180542
20
-109.98131079142253
10
107.88544901570131
20
-108.21794943277993
10
106.38544973095705
20
-107.12812577351886
10
105.68234947880556
20
-107.12812577351886
10
105.68234947880556
20
-94.995210022379553
10
104.96635030468751
20
-69.834504201660138
10
105.38545020779422
20
-69.834504201660138
10
106.88544949253847
20
-68.744712840169257
10
107.45834935864259
20
-66.981319183756497
10
106.88544949253846
20
-65.217925527343738
10
105.38545020779421
20
-64.128101868082666
10
104.80404997230023
20
-64.128101868082666
10
104.45835078915407
20
-51.981330373535137
10
103.31245012641401
20
-48.454607656249991
10
89.997250274424246
20
-35.829312398681623
10
88.497248971069368
20
-34.739488739420558
10
86.905849015319845
20
-33.909080770263657
10
85.051747071350121
20
-33.909080770263657
10
72.148448756937682
20
-33.013786580810532
10
70.377146184051526
20
-32.287086751708969
10
52.432145758076999
20
-26.458275869140607
10
50.526044404113783
20
-26.637883769124329
10
49.43604310711671
20
-27.078296163330062
10
47.83184515993247
20
-28.123193624267561
10
46.896945829793296
20
-29.793892680257137
10
26.916342103088382
20
-75.12239202921549
10
26.4583435730184
20
-76.981290192057273
10
26.4583435730184
20
-116.98130341634113
10
26.916342103088382
20
-118.84020157918293
10
28.186338873311371
20
-120.27322134440105
10
29.976337817911798
20
-120.95212047363279
0
ENDSEC
0
SECTION
2
OBJECTS
0
DICTIONARY
5
C
100
AcDbDictionary
3
ACAD_GROUP
350
D
3
ACAD_MLINESTYLE
350
17
0
DICTIONARY
5
D
100
AcDbDictionary
0
DICTIONARY
5
1A
330
C
100
AcDbDictionary
0
DICTIONARY
5
17
100
AcDbDictionary
0
ENDSEC
0
EOF
