999
"DXF R12 Output" (www.mydxf.blogspot.com)
 0 
SECTION
 2 
HEADER
 9 
$ACADVER
 1 
AC1009
 9 
$EXTMIN
 10 
 0 
 20 
 0 
 9 
$EXTMAX
 10 
 8.5 
 20 
 11 
 0 
ENDSEC
 0 
SECTION
 2 
ENTITIES
0
LINE
8
Layer 1
10
0.846666
20
108.695000
11
-0.846666
21
107.001000
0
LINE
8
Layer 1
10
0.000000
20
109.259000
11
0.000000
21
106.437000
0
LINE
8
Layer 1
10
2.257780
20
106.719000
11
1.128890
21
105.590110
0
LINE
8
Layer 1
10
1.693330
20
107.284000
11
0.564440
21
106.155110
0
LINE
8
Layer 1
10
1.128890
20
107.848000
11
0.000000
21
106.719110
0
LINE
8
Layer 1
10
10.000000
20
86.278000
11
11.128900
21
87.406900
0
LINE
8
Layer 1
10
11.128900
20
87.406900
11
7.177780
21
86.278000
0
LINE
8
Layer 1
10
7.177780
20
86.278000
11
11.128900
21
85.149100
0
LINE
8
Layer 1
10
11.128900
20
85.149100
11
10.000000
21
86.278000
0
LINE
8
Layer 1
10
10.000000
20
86.278000
11
10.000000
21
86.278000
0
LINE
8
Layer 1
10
-10.000000
20
-86.278000
11
-11.128900
21
-87.406900
0
LINE
8
Layer 1
10
-11.128900
20
-87.406900
11
-7.177780
21
-86.278000
0
LINE
8
Layer 1
10
-7.177780
20
-86.278000
11
-11.128900
21
-85.149100
0
LINE
8
Layer 1
10
-11.128900
20
-85.149100
11
-10.000000
21
-86.278000
0
LINE
8
Layer 1
10
-10.000000
20
-86.278000
11
-10.000000
21
-86.278000
0
LINE
8
Layer 1
10
10.000000
20
86.278000
11
11.128900
21
87.406900
0
LINE
8
Layer 1
10
11.128900
20
87.406900
11
7.177780
21
86.278000
0
LINE
8
Layer 1
10
7.177780
20
86.278000
11
11.128900
21
85.149100
0
LINE
8
Layer 1
10
11.128900
20
85.149100
11
10.000000
21
86.278000
0
LINE
8
Layer 1
10
10.000000
20
86.278000
11
10.000000
21
86.278000
0
LINE
8
Layer 1
10
-10.000000
20
-86.278000
11
-11.128900
21
-87.406900
0
LINE
8
Layer 1
10
-11.128900
20
-87.406900
11
-7.177780
21
-86.278000
0
LINE
8
Layer 1
10
-7.177780
20
-86.278000
11
-11.128900
21
-85.149100
0
LINE
8
Layer 1
10
-11.128900
20
-85.149100
11
-10.000000
21
-86.278000
0
LINE
8
Layer 1
10
-10.000000
20
-86.278000
11
-10.000000
21
-86.278000
0
LINE
8
0
10
-65.599900
20
-269.752000
11
-65.814259
21
-268.952000
0
LINE
8
0
10
-65.814259
20
-268.952000
11
-66.399900
21
-268.366359
0
LINE
8
0
10
-66.399900
20
-268.366359
11
-67.199900
21
-268.152000
0
LINE
8
0
10
-67.199900
20
-268.152000
11
-67.999900
21
-268.366359
0
LINE
8
0
10
-67.999900
20
-268.366359
11
-68.585541
21
-268.952000
0
LINE
8
0
10
-68.585541
20
-268.952000
11
-68.799900
21
-269.752000
0
LINE
8
0
10
-68.799900
20
-269.752000
11
-68.585541
21
-270.552000
0
LINE
8
0
10
-68.585541
20
-270.552000
11
-67.999900
21
-271.137641
0
LINE
8
0
10
-67.999900
20
-271.137641
11
-67.199900
21
-271.352000
0
LINE
8
0
10
-67.199900
20
-271.352000
11
-66.399900
21
-271.137641
0
LINE
8
0
10
-66.399900
20
-271.137641
11
-65.814259
21
-270.552000
0
LINE
8
0
10
-65.814259
20
-270.552000
11
-65.599900
21
-269.752000
0
LINE
8
0
10
-65.599900
20
-269.752000
11
-65.599900
21
-269.752000
0
LINE
8
0
10
-79.714700
20
-257.046000
11
-79.929059
21
-256.246000
0
LINE
8
0
10
-79.929059
20
-256.246000
11
-80.514700
21
-255.660359
0
LINE
8
0
10
-80.514700
20
-255.660359
11
-81.314700
21
-255.446000
0
LINE
8
0
10
-81.314700
20
-255.446000
11
-82.114700
21
-255.660359
0
LINE
8
0
10
-82.114700
20
-255.660359
11
-82.700341
21
-256.246000
0
LINE
8
0
10
-82.700341
20
-256.246000
11
-82.914700
21
-257.046000
0
LINE
8
0
10
-82.914700
20
-257.046000
11
-82.700341
21
-257.846000
0
LINE
8
0
10
-82.700341
20
-257.846000
11
-82.114700
21
-258.431641
0
LINE
8
0
10
-82.114700
20
-258.431641
11
-81.314700
21
-258.646000
0
LINE
8
0
10
-81.314700
20
-258.646000
11
-80.514700
21
-258.431641
0
LINE
8
0
10
-80.514700
20
-258.431641
11
-79.929059
21
-257.846000
0
LINE
8
0
10
-79.929059
20
-257.846000
11
-79.714700
21
-257.046000
0
LINE
8
0
10
-79.714700
20
-257.046000
11
-79.714700
21
-257.046000
0
LINE
8
0
10
-75.199900
20
-323.085000
11
-75.414259
21
-322.285000
0
LINE
8
0
10
-75.414259
20
-322.285000
11
-75.999900
21
-321.699359
0
LINE
8
0
10
-75.999900
20
-321.699359
11
-76.799900
21
-321.485000
0
LINE
8
0
10
-76.799900
20
-321.485000
11
-77.599900
21
-321.699359
0
LINE
8
0
10
-77.599900
20
-321.699359
11
-78.185541
21
-322.285000
0
LINE
8
0
10
-78.185541
20
-322.285000
11
-78.399900
21
-323.085000
0
LINE
8
0
10
-78.399900
20
-323.085000
11
-78.185541
21
-323.885000
0
LINE
8
0
10
-78.185541
20
-323.885000
11
-77.599900
21
-324.470641
0
LINE
8
0
10
-77.599900
20
-324.470641
11
-76.799900
21
-324.685000
0
LINE
8
0
10
-76.799900
20
-324.685000
11
-75.999900
21
-324.470641
0
LINE
8
0
10
-75.999900
20
-324.470641
11
-75.414259
21
-323.885000
0
LINE
8
0
10
-75.414259
20
-323.885000
11
-75.199900
21
-323.085000
0
LINE
8
0
10
-75.199900
20
-323.085000
11
-75.199900
21
-323.085000
0
LINE
8
0
10
-76.774500
20
-308.222000
11
-92.680000
21
-322.501900
0
LINE
8
0
10
-92.680000
20
-322.501900
11
-93.070934
21
-322.969882
0
LINE
8
0
10
-93.070934
20
-322.969882
11
-93.310253
21
-323.518083
0
LINE
8
0
10
-93.310253
20
-323.518083
11
-93.388130
21
-324.111155
0
LINE
8
0
10
-93.388130
20
-324.111155
11
-93.294741
21
-324.713745
0
LINE
8
0
10
-93.294741
20
-324.713745
11
-93.034837
21
-325.265367
0
LINE
8
0
10
-93.034837
20
-325.265367
11
-92.638338
21
-325.713236
0
LINE
8
0
10
-92.638338
20
-325.713236
11
-92.133173
21
-326.033559
0
LINE
8
0
10
-92.133173
20
-326.033559
11
-91.547270
21
-326.202540
0
LINE
8
0
10
-91.547270
20
-326.202540
11
-79.451070
21
-327.876600
0
LINE
8
0
10
-79.451070
20
-327.876600
11
-79.110411
21
-327.679181
0
LINE
8
0
10
-79.110411
20
-327.679181
11
-79.219112
21
-327.300754
0
LINE
8
0
10
-79.219112
20
-327.300754
11
-79.844270
21
-326.846546
0
LINE
8
0
10
-79.844270
20
-326.846546
11
-81.066560
21
-323.084726
0
LINE
8
0
10
-81.066560
20
-323.084726
11
-79.844270
21
-319.322906
0
LINE
8
0
10
-79.844270
20
-319.322906
11
-76.257080
21
-308.561406
0
LINE
8
0
10
-76.257080
20
-308.561406
11
-76.385157
21
-308.192622
0
LINE
8
0
10
-76.385157
20
-308.192622
11
-76.774435
21
-308.222090
0
LINE
8
0
10
-76.774435
20
-308.222090
11
-76.774500
21
-308.222000
0
LINE
8
0
10
-25.066600
20
-320.952000
11
-25.280959
21
-320.152000
0
LINE
8
0
10
-25.280959
20
-320.152000
11
-25.866600
21
-319.566359
0
LINE
8
0
10
-25.866600
20
-319.566359
11
-26.666600
21
-319.352000
0
LINE
8
0
10
-26.666600
20
-319.352000
11
-27.466600
21
-319.566359
0
LINE
8
0
10
-27.466600
20
-319.566359
11
-28.052241
21
-320.152000
0
LINE
8
0
10
-28.052241
20
-320.152000
11
-28.266600
21
-320.952000
0
LINE
8
0
10
-28.266600
20
-320.952000
11
-28.052241
21
-321.752000
0
LINE
8
0
10
-28.052241
20
-321.752000
11
-27.466600
21
-322.337641
0
LINE
8
0
10
-27.466600
20
-322.337641
11
-26.666600
21
-322.552000
0
LINE
8
0
10
-26.666600
20
-322.552000
11
-25.866600
21
-322.337641
0
LINE
8
0
10
-25.866600
20
-322.337641
11
-25.280959
21
-321.752000
0
LINE
8
0
10
-25.280959
20
-321.752000
11
-25.066600
21
-320.952000
0
LINE
8
0
10
-25.066600
20
-320.952000
11
-25.066600
21
-320.952000
0
LINE
8
0
10
-91.103100
20
-291.865000
11
-73.148200
21
-301.635670
0
LINE
8
0
10
-73.148200
20
-301.635670
11
-72.768973
21
-301.580863
0
LINE
8
0
10
-72.768973
20
-301.580863
11
-69.177623
21
-297.989503
0
LINE
8
0
10
-69.177623
20
-297.989503
11
-61.085143
21
-291.152733
0
LINE
8
0
10
-61.085143
20
-291.152733
11
-60.986265
21
-290.812706
0
LINE
8
0
10
-60.986265
20
-290.812706
11
-61.261357
21
-290.589728
0
LINE
8
0
10
-61.261357
20
-290.589728
11
-89.881357
21
-287.867418
0
LINE
8
0
10
-89.881357
20
-287.867418
11
-90.615660
21
-287.925058
0
LINE
8
0
10
-90.615660
20
-287.925058
11
-91.269702
21
-288.218116
0
LINE
8
0
10
-91.269702
20
-288.218116
11
-91.790118
21
-288.710885
0
LINE
8
0
10
-91.790118
20
-288.710885
11
-92.123542
21
-289.367659
0
LINE
8
0
10
-92.123542
20
-289.367659
11
-92.214225
21
-290.098618
0
LINE
8
0
10
-92.214225
20
-290.098618
11
-92.058181
21
-290.798120
0
LINE
8
0
10
-92.058181
20
-290.798120
11
-91.679699
21
-291.406729
0
LINE
8
0
10
-91.679699
20
-291.406729
11
-91.103067
21
-291.865008
0
LINE
8
0
10
-91.103067
20
-291.865008
11
-91.103100
21
-291.865000
0
LINE
8
0
10
-26.133300
20
-275.085000
11
-26.347659
21
-274.285000
0
LINE
8
0
10
-26.347659
20
-274.285000
11
-26.933300
21
-273.699359
0
LINE
8
0
10
-26.933300
20
-273.699359
11
-27.733300
21
-273.485000
0
LINE
8
0
10
-27.733300
20
-273.485000
11
-28.533300
21
-273.699359
0
LINE
8
0
10
-28.533300
20
-273.699359
11
-29.118941
21
-274.285000
0
LINE
8
0
10
-29.118941
20
-274.285000
11
-29.333300
21
-275.085000
0
LINE
8
0
10
-29.333300
20
-275.085000
11
-29.118941
21
-275.885000
0
LINE
8
0
10
-29.118941
20
-275.885000
11
-28.533300
21
-276.470641
0
LINE
8
0
10
-28.533300
20
-276.470641
11
-27.733300
21
-276.685000
0
LINE
8
0
10
-27.733300
20
-276.685000
11
-26.933300
21
-276.470641
0
LINE
8
0
10
-26.933300
20
-276.470641
11
-26.347659
21
-275.885000
0
LINE
8
0
10
-26.347659
20
-275.885000
11
-26.133300
21
-275.085000
0
LINE
8
0
10
-26.133300
20
-275.085000
11
-26.133300
21
-275.085000
0
LINE
8
0
10
-63.372400
20
-243.333000
11
-63.586759
21
-242.533000
0
LINE
8
0
10
-63.586759
20
-242.533000
11
-64.172400
21
-241.947359
0
LINE
8
0
10
-64.172400
20
-241.947359
11
-64.972400
21
-241.733000
0
LINE
8
0
10
-64.972400
20
-241.733000
11
-65.772400
21
-241.947359
0
LINE
8
0
10
-65.772400
20
-241.947359
11
-66.358041
21
-242.533000
0
LINE
8
0
10
-66.358041
20
-242.533000
11
-66.572400
21
-243.333000
0
LINE
8
0
10
-66.572400
20
-243.333000
11
-66.358041
21
-244.133000
0
LINE
8
0
10
-66.358041
20
-244.133000
11
-65.772400
21
-244.718641
0
LINE
8
0
10
-65.772400
20
-244.718641
11
-64.972400
21
-244.933000
0
LINE
8
0
10
-64.972400
20
-244.933000
11
-64.172400
21
-244.718641
0
LINE
8
0
10
-64.172400
20
-244.718641
11
-63.586759
21
-244.133000
0
LINE
8
0
10
-63.586759
20
-244.133000
11
-63.372400
21
-243.333000
0
LINE
8
0
10
-63.372400
20
-243.333000
11
-63.372400
21
-243.333000
0
LINE
8
0
10
-82.513700
20
-237.116000
11
-82.728059
21
-236.316000
0
LINE
8
0
10
-82.728059
20
-236.316000
11
-83.313700
21
-235.730359
0
LINE
8
0
10
-83.313700
20
-235.730359
11
-84.113700
21
-235.516000
0
LINE
8
0
10
-84.113700
20
-235.516000
11
-84.913700
21
-235.730359
0
LINE
8
0
10
-84.913700
20
-235.730359
11
-85.499341
21
-236.316000
0
LINE
8
0
10
-85.499341
20
-236.316000
11
-85.713700
21
-237.116000
0
LINE
8
0
10
-85.713700
20
-237.116000
11
-85.499341
21
-237.916000
0
LINE
8
0
10
-85.499341
20
-237.916000
11
-84.913700
21
-238.501641
0
LINE
8
0
10
-84.913700
20
-238.501641
11
-84.113700
21
-238.716000
0
LINE
8
0
10
-84.113700
20
-238.716000
11
-83.313700
21
-238.501641
0
LINE
8
0
10
-83.313700
20
-238.501641
11
-82.728059
21
-237.916000
0
LINE
8
0
10
-82.728059
20
-237.916000
11
-82.513700
21
-237.116000
0
LINE
8
0
10
-82.513700
20
-237.116000
11
-82.513700
21
-237.116000
0
LINE
8
0
10
-71.977800
20
-266.295000
11
-96.568800
21
-279.000800
0
LINE
8
0
10
-96.568800
20
-279.000800
11
-97.123087
21
-279.412845
0
LINE
8
0
10
-97.123087
20
-279.412845
11
-97.509161
21
-279.965427
0
LINE
8
0
10
-97.509161
20
-279.965427
11
-97.703870
21
-280.610787
0
LINE
8
0
10
-97.703870
20
-280.610787
11
-97.684058
21
-281.301166
0
LINE
8
0
10
-97.684058
20
-281.301166
11
-97.445036
21
-281.949150
0
LINE
8
0
10
-97.445036
20
-281.949150
11
-97.023748
21
-282.475379
0
LINE
8
0
10
-97.023748
20
-282.475379
11
-96.459483
21
-282.844170
0
LINE
8
0
10
-96.459483
20
-282.844170
11
-95.791535
21
-283.019840
0
LINE
8
0
10
-95.791535
20
-283.019840
11
-59.942235
21
-286.429760
0
LINE
8
0
10
-59.942235
20
-286.429760
11
-59.647561
21
-286.291482
0
LINE
8
0
10
-59.647561
20
-286.291482
11
-59.626443
21
-285.966662
0
LINE
8
0
10
-59.626443
20
-285.966662
11
-66.295433
21
-272.795262
0
LINE
8
0
10
-66.295433
20
-272.795262
11
-68.188700
21
-272.795000
0
LINE
8
0
10
-68.188700
20
-272.795000
11
-69.788700
21
-271.632560
0
LINE
8
0
10
-69.788700
20
-271.632560
11
-70.399900
21
-269.751610
0
LINE
8
0
10
-70.399900
20
-269.751610
11
-69.788700
21
-267.870630
0
LINE
8
0
10
-69.788700
20
-267.870630
11
-69.057607
21
-267.339432
0
LINE
8
0
10
-69.057607
20
-267.339432
11
-69.917949
21
-265.640232
0
LINE
8
0
10
-69.917949
20
-265.640232
11
-70.105757
21
-265.480046
0
LINE
8
0
10
-70.105757
20
-265.480046
11
-70.351693
21
-265.501181
0
LINE
8
0
10
-70.351693
20
-265.501181
11
-71.955123
21
-266.339409
0
LINE
8
0
10
-71.955123
20
-266.339409
11
-71.977800
21
-266.295000
0
LINE
8
0
10
-91.629300
20
-271.646000
11
-75.748100
21
-263.440420
0
LINE
8
0
10
-75.748100
20
-263.440420
11
-75.580117
21
-263.099127
0
LINE
8
0
10
-75.580117
20
-263.099127
11
-75.857088
21
-262.838384
0
LINE
8
0
10
-75.857088
20
-262.838384
11
-80.514658
21
-262.282830
0
LINE
8
0
10
-80.514658
20
-262.282830
11
-82.534608
21
-261.982264
0
LINE
8
0
10
-82.534608
20
-261.982264
11
-83.751248
21
-261.678904
0
LINE
8
0
10
-83.751248
20
-261.678904
11
-85.400208
21
-260.474214
0
LINE
8
0
10
-85.400208
20
-260.474214
11
-86.300366
21
-258.641124
0
LINE
8
0
10
-86.300366
20
-258.641124
11
-87.048330
21
-253.315344
0
LINE
8
0
10
-87.048330
20
-253.315344
11
-87.321262
21
-253.042894
0
LINE
8
0
10
-87.321262
20
-253.042894
11
-87.658034
21
-253.230790
0
LINE
8
0
10
-87.658034
20
-253.230790
11
-94.560644
21
-268.890290
0
LINE
8
0
10
-94.560644
20
-268.890290
11
-94.730513
21
-269.529634
0
LINE
8
0
10
-94.730513
20
-269.529634
11
-94.699118
21
-270.175734
0
LINE
8
0
10
-94.699118
20
-270.175734
11
-94.475766
21
-270.782812
0
LINE
8
0
10
-94.475766
20
-270.782812
11
-94.069761
21
-271.305092
0
LINE
8
0
10
-94.069761
20
-271.305092
11
-93.523427
21
-271.678099
0
LINE
8
0
10
-93.523427
20
-271.678099
11
-92.903725
21
-271.863570
0
LINE
8
0
10
-92.903725
20
-271.863570
11
-92.256919
21
-271.855042
0
LINE
8
0
10
-92.256919
20
-271.855042
11
-91.629274
21
-271.646050
0
LINE
8
0
10
-91.629274
20
-271.646050
11
-91.629300
21
-271.646000
0
LINE
8
0
10
-98.841400
20
-322.300000
11
-78.520600
21
-304.056200
0
LINE
8
0
10
-78.520600
20
-304.056200
11
-78.416543
21
-303.780846
0
LINE
8
0
10
-78.416543
20
-303.780846
11
-78.581422
21
-303.536996
0
LINE
8
0
10
-78.581422
20
-303.536996
11
-99.246822
21
-292.291396
0
LINE
8
0
10
-99.246822
20
-292.291396
11
-100.306903
21
-292.032291
0
LINE
8
0
10
-100.306903
20
-292.032291
11
-101.356420
21
-292.331325
0
LINE
8
0
10
-101.356420
20
-292.331325
11
-102.120741
21
-293.110248
0
LINE
8
0
10
-102.120741
20
-293.110248
11
-102.399862
21
-294.165236
0
LINE
8
0
10
-102.399862
20
-294.165236
11
-102.400000
21
-320.712000
0
LINE
8
0
10
-102.400000
20
-320.712000
11
-102.310596
21
-321.323396
0
LINE
8
0
10
-102.310596
20
-321.323396
11
-102.056242
21
-321.873243
0
LINE
8
0
10
-102.056242
20
-321.873243
11
-101.657709
21
-322.329532
0
LINE
8
0
10
-101.657709
20
-322.329532
11
-101.135769
21
-322.660253
0
LINE
8
0
10
-101.135769
20
-322.660253
11
-100.540988
21
-322.827687
0
LINE
8
0
10
-100.540988
20
-322.827687
11
-99.935217
21
-322.819405
0
LINE
8
0
10
-99.935217
20
-322.819405
11
-99.356149
21
-322.641337
0
LINE
8
0
10
-99.356149
20
-322.641337
11
-98.841480
21
-322.299410
0
LINE
8
0
10
-98.841480
20
-322.299410
11
-98.841400
21
-322.300000
0
LINE
8
Layer 1
10
-110.933000
20
-217.749000
11
-23.466600
21
-217.749000
0
LINE
8
Layer 1
10
-110.933000
20
-203.638000
11
-110.933000
21
-339.424000
0
LINE
8
Layer 1
10
-23.466600
20
-203.638000
11
-23.466600
21
-339.424000
0
LINE
8
Layer 1
10
-125.044000
20
-231.861000
11
-125.044000
21
-339.424000
0
LINE
8
Layer 1
10
-139.155000
20
-231.861000
11
-23.466600
21
-231.861000
0
LINE
8
Layer 1
10
-139.155000
20
-339.424000
11
-23.466600
21
-339.424000
0
LINE
8
0
10
-110.933000
20
-217.749000
11
-23.466600
21
-217.749000
0
LINE
8
0
10
-110.933000
20
-203.638000
11
-110.933000
21
-339.424000
0
LINE
8
0
10
-23.466600
20
-203.638000
11
-23.466600
21
-339.424000
0
LINE
8
0
10
-125.044000
20
-231.861000
11
-125.044000
21
-339.424000
0
LINE
8
0
10
-139.155000
20
-231.861000
11
-23.466600
21
-231.861000
0
LINE
8
0
10
-139.155000
20
-339.424000
11
-23.466600
21
-339.424000
0
LINE
8
0
10
-58.540300
20
-339.424000
11
-60.427450
21
-339.124704
0
LINE
8
0
10
-60.427450
20
-339.124704
11
-107.180650
21
-332.654204
0
LINE
8
0
10
-107.180650
20
-332.654204
11
-109.089980
21
-331.930051
0
LINE
8
0
10
-109.089980
20
-331.930051
11
-110.444650
21
-330.401511
0
LINE
8
0
10
-110.444650
20
-330.401511
11
-110.933185
21
-328.418701
0
LINE
8
0
10
-110.933185
20
-328.418701
11
-110.933000
21
-285.752000
0
LINE
8
0
10
-110.933000
20
-285.752000
11
-110.444465
21
-283.769160
0
LINE
8
0
10
-110.444465
20
-283.769160
11
-89.131865
21
-235.418760
0
LINE
8
0
10
-89.131865
20
-235.418760
11
-88.134639
21
-233.636670
0
LINE
8
0
10
-88.134639
20
-233.636670
11
-86.423499
21
-232.522120
0
LINE
8
0
10
-86.423499
20
-232.522120
11
-85.260829
21
-232.052361
0
LINE
8
0
10
-85.260829
20
-232.052361
11
-83.227659
21
-231.860789
0
LINE
8
0
10
-83.227659
20
-231.860789
11
-64.086359
21
-238.078169
0
LINE
8
0
10
-64.086359
20
-238.078169
11
-62.196969
21
-238.853320
0
LINE
8
0
10
-62.196969
20
-238.853320
11
-48.433469
21
-239.808303
0
LINE
8
0
10
-48.433469
20
-239.808303
11
-46.456000
21
-239.808000
0
LINE
8
0
10
-46.456000
20
-239.808000
11
-44.758510
21
-240.693754
0
LINE
8
0
10
-44.758510
20
-240.693754
11
-43.158510
21
-241.856224
0
LINE
8
0
10
-43.158510
20
-241.856224
11
-28.955610
21
-255.323224
0
LINE
8
0
10
-28.955610
20
-255.323224
11
-27.733320
21
-259.085044
0
LINE
8
0
10
-27.733320
20
-259.085044
11
-27.364574
21
-272.041644
0
LINE
8
0
10
-27.364574
20
-272.041644
11
-26.744400
21
-272.042000
0
LINE
8
0
10
-26.744400
20
-272.042000
11
-25.144400
21
-273.204470
0
LINE
8
0
10
-25.144400
20
-273.204470
11
-24.533307
21
-275.085420
0
LINE
8
0
10
-24.533307
20
-275.085420
11
-25.144400
21
-276.966370
0
LINE
8
0
10
-25.144400
20
-276.966370
11
-26.744400
21
-278.128810
0
LINE
8
0
10
-26.744400
20
-278.128810
11
-27.191400
21
-278.128000
0
LINE
8
0
10
-27.191400
20
-278.128000
11
-26.427667
21
-304.966100
0
LINE
8
0
10
-26.427667
20
-304.966100
11
-26.427700
21
-317.908000
0
LINE
8
0
10
-26.427700
20
-317.908000
11
-25.677700
21
-317.908000
0
LINE
8
0
10
-25.677700
20
-317.908000
11
-24.077700
21
-319.070470
0
LINE
8
0
10
-24.077700
20
-319.070470
11
-23.466607
21
-320.951390
0
LINE
8
0
10
-23.466607
20
-320.951390
11
-24.077700
21
-322.832290
0
LINE
8
0
10
-24.077700
20
-322.832290
11
-25.677700
21
-323.994760
0
LINE
8
0
10
-25.677700
20
-323.994760
11
-26.427700
21
-323.995000
0
LINE
8
0
10
-26.427700
20
-323.995000
11
-26.427700
21
-330.537000
0
LINE
8
0
10
-26.427700
20
-330.537000
11
-27.038899
21
-332.417840
0
LINE
8
0
10
-27.038899
20
-332.417840
11
-28.132129
21
-334.187540
0
LINE
8
0
10
-28.132129
20
-334.187540
11
-29.732129
21
-335.350010
0
LINE
8
0
10
-29.732129
20
-335.350010
11
-31.571489
21
-336.223826
0
LINE
8
0
10
-31.571489
20
-336.223826
11
-43.038789
21
-339.423796
0
LINE
8
0
10
-43.038789
20
-339.423796
11
-58.540300
21
-339.424000
 0 
ENDSEC
 0 
EOF