0
SECTION
2
HEADER
9
$INSUNITS
70
4
9
$ACADVER
1
AC1014
9
$HANDSEED
5
FFFF
0
ENDSEC
0
SECTION
2
TABLES
0
TABLE
2
VPORT
5
8
100
AcDbSymbolTable
0
ENDTAB
0
TABLE
2
LTYPE
5
5
100
AcDbSymbolTable
0
LTYPE
5
14
100
AcDbSymbolTableRecord
100
AcDbLinetypeTableRecord
2
BYBLOCK
70
0
0
LTYPE
5
15
100
AcDbSymbolTableRecord
100
AcDbLinetypeTableRecord
2
BYLAYER
70
0
0
ENDTAB
0
TABLE
2
LAYER
5
2
100
AcDbSymbolTable
70
2
0
LAYER
5
50
100
AcDbSymbolTableRecord
100
AcDbLayerTableRecord
2
0
70
0
6
CONTINUOUS
0
ENDTAB
0
TABLE
2
STYLE
5
3
100
AcDbSymbolTable
70
1
0
STYLE
5
11
100
AcDbSymbolTableRecord
100
AcDbTextStyleTableRecord
2
STANDARD
70
0
0
ENDTAB
0
TABLE
2
VIEW
5
6
100
AcDbSymbolTable
70
0
0
ENDTAB
0
TABLE
2
UCS
5
7
100
AcDbSymbolTable
70
0
0
ENDTAB
0
TABLE
2
APPID
5
9
100
AcDbSymbolTable
70
2
0
APPID
5
12
100
AcDbSymbolTableRecord
100
AcDbRegAppTableRecord
2
ACAD
70
0
0
ENDTAB
0
TABLE
2
DIMSTYLE
5
A
100
AcDbSymbolTable
70
1
0
ENDTAB
0
TABLE
2
BLOCK_RECORD
5
1
100
AcDbSymbolTable
70
1
0
BLOCK_RECORD
5
1F
100
AcDbSymbolTableRecord
100
AcDbBlockTableRecord
2
*MODEL_SPACE
0
BLOCK_RECORD
5
1B
100
AcDbSymbolTableRecord
100
AcDbBlockTableRecord
2
*PAPER_SPACE
0
ENDTAB
0
ENDSEC
0
SECTION
2
BLOCKS
0
BLOCK
5
20
100
AcDbEntity
100
AcDbBlockBegin
2
*MODEL_SPACE
0
ENDBLK
5
21
100
AcDbEntity
100
AcDbBlockEnd
0
BLOCK
5
1C
100
AcDbEntity
100
AcDbBlockBegin
2
*PAPER_SPACE
0
ENDBLK
5
1D
100
AcDbEntity
100
AcDbBlockEnd
0
ENDSEC
0
SECTION
2
ENTITIES
0
CIRCLE
5
100
100
AcDbEntity
8
0
100
AcDbCircle
10
-63.000000000000007
20
-57
30
0
40
1.5000000000000036
210
0
220
-0
230
1
0
CIRCLE
5
101
100
AcDbEntity
8
0
100
AcDbCircle
10
-76.232550000000003
20
-45.088350000000005
30
0
40
1.5000000000000036
210
0
220
-0
230
1
0
CIRCLE
5
102
100
AcDbEntity
8
0
100
AcDbCircle
10
-72.000000000000014
20
-107.00000000000001
30
0
40
1.5000000000000036
210
0
220
-0
230
1
0
LWPOLYLINE
5
103
100
AcDbEntity
8
0
100
AcDbPolyline
90
9
70
1
43
0.0
10
-71.976131593582281
20
-93.066217505957525
10
-86.887579289605483
20
-106.45360394189984
42
0.63831767993975119
10
-85.82564621308407
20
-109.92294178966836
10
-74.485473544726815
20
-111.49238592658631
42
0.78044169147650233
10
-74.268012374888642
20
-110.95251219589758
10
-74.854100000000003
20
-110.52670000000001
10
-76
20
-107.00000000000001
10
-74.854100000000003
20
-103.47327
10
-71.491109644852983
20
-93.384319112501046
42
0.76977175380178442
0
CIRCLE
5
104
100
AcDbEntity
8
0
100
AcDbCircle
10
-25
20
-105
30
0
40
1.4999999999999991
210
0
220
-0
230
1
0
LWPOLYLINE
5
105
100
AcDbEntity
8
0
100
AcDbPolyline
90
7
70
1
43
0.0
10
-85.409256824384585
20
-77.731578915434568
10
-68.576524701818045
20
-86.891574398005872
42
0.33243301622850674
10
-68.220996432780765
20
-86.840196432780758
10
-64.854100000000003
20
-83.473299999999995
10
-57.267393879582514
20
-77.063804440818203
42
0.66423645189217184
10
-57.432592678317732
20
-76.535987293976206
10
-84.263899612376662
20
-73.983832189887863
42
0.8161579045050994
0
CIRCLE
5
106
100
AcDbEntity
8
0
100
AcDbCircle
10
-26
20
-62
30
0
40
1.4999999999999991
210
0
220
-0
230
1
0
CIRCLE
5
107
100
AcDbEntity
8
0
100
AcDbCircle
10
-60.911699999999996
20
-32.232550000000003
30
0
40
1.5000000000000036
210
0
220
-0
230
1
0
CIRCLE
5
108
100
AcDbEntity
8
0
100
AcDbCircle
10
-78.856700000000018
20
-26.403750000000002
30
0
40
1.5000000000000036
210
0
220
-0
230
1
0
LWPOLYLINE
5
109
100
AcDbEntity
8
0
100
AcDbPolyline
90
14
70
1
43
0.0
10
-67.479237876551267
20
-53.759182560151331
10
-90.533330382733794
20
-65.670898519697516
42
0.7483794741273212
10
-89.80464614093512
20
-69.438750061210101
10
-56.195873277558313
20
-72.635567920892242
42
0.5907371802731074
10
-55.899818161729833
20
-72.201399595629908
10
-62.152000000000001
20
-59.853200000000008
10
-63.927000000000007
20
-59.853200000000008
10
-65.427000000000007
20
-58.763399999999997
10
-66
20
-57
10
-65.427000000000007
20
-55.236600000000003
10
-64.741600000000005
20
-54.738600000000005
10
-65.548170703985079
20
-53.145577429995356
42
0.41803136454952072
10
-65.954806326503842
20
-53.015229833539486
10
-67.458024699595981
20
-53.801079779458107
0
LWPOLYLINE
5
110
100
AcDbEntity
8
0
100
AcDbPolyline
90
11
70
1
43
0.0
10
-85.902560828994581
20
-58.775867208263371
10
-71.01394638728253
20
-51.083135593982277
42
0.7391059997854228
10
-71.116125094969973
20
-50.518721422336014
10
-75.482598999999993
20
-49.997900999999999
10
-77.376300000000001
20
-49.716099999999997
10
-78.516900000000021
20
-49.431700000000006
10
-80.06280000000001
20
-48.302300000000002
10
-80.906700000000015
20
-46.583800000000004
10
-81.6079162418322
20
-41.590870998766135
42
0.75504570985597885
10
-82.179514659069497
20
-41.511589575819286
10
-88.650720356021694
20
-56.192332267945552
42
0.70746587408996986
0
LWPOLYLINE
5
111
100
AcDbEntity
8
0
100
AcDbPolyline
90
6
70
1
43
0.0
10
-92.663886558431329
20
-106.26398272895881
10
-73.613151887018731
20
-89.160375343954655
42
0.51795613665556461
10
-73.670172668572732
20
-88.673632238398369
10
-93.044025102124635
20
-78.130816046758028
42
0.56896844371356992
10
-96
20
-79.887549377298598
10
-96.000000000000014
20
-104.77576202245743
42
0.64889442722481605
0
LWPOLYLINE
5
112
100
AcDbEntity
8
0
100
AcDbPolyline
90
42
70
1
43
0.0
10
-54.881600000000006
20
-122.3175
10
-56.650799000000006
20
-122.03690000000002
10
-100.48200000000001
20
-115.9708
10
-102.27200000000002
20
-115.2919
10
-103.542
20
-113.85890000000002
10
-104
20
-112.00000000000001
10
-104
20
-72
10
-103.542
20
-70.141099999999994
10
-83.56140000000002
20
-24.812599999999996
10
-82.626499999999993
20
-23.1419
10
-81.022300000000001
20
-22.097000000000001
10
-79.932299999999998
20
-21.656600000000005
10
-78.026200000000017
20
-21.477
10
-60.08120000000001
20
-27.305800000000001
10
-58.309899999999999
20
-28.032500000000002
10
-45.406599999999997
20
-28.927800000000001
10
-43.552500000000009
20
-28.927800000000001
10
-41.961100000000002
20
-29.758200000000002
10
-40.461100000000002
20
-30.847999999999999
10
-27.145900000000005
20
-43.473300000000002
10
-26
20
-47
10
-25.654299999999999
20
-59.146800000000006
10
-25.072900000000004
20
-59.146800000000006
10
-23.572900000000004
20
-60.236600000000003
10
-23.000000000000004
20
-62
10
-23.572900000000004
20
-63.763399999999997
10
-25.072900000000004
20
-64.853200000000001
10
-25.492000000000004
20
-64.853200000000001
10
-24.776000000000003
20
-90.013900000000007
10
-24.776000000000003
20
-102.14681999999999
10
-24.072900000000001
20
-102.14681999999999
10
-22.572900000000004
20
-103.23663000000002
10
-22
20
-105
10
-22.572900000000004
20
-106.76335000000002
10
-24.072900000000001
20
-107.85316000000002
10
-24.776000000000003
20
-107.85316000000002
10
-24.776000000000003
20
-113.98609999999999
10
-25.349000000000004
20
-115.74939999999999
10
-26.373899999999999
20
-117.40850000000002
10
-27.873900000000003
20
-118.4983
10
-29.598300000000002
20
-119.31750000000001
10
-40.3489
20
-122.3175
0
ENDSEC
0
SECTION
2
OBJECTS
0
DICTIONARY
5
C
100
AcDbDictionary
3
ACAD_GROUP
350
D
3
ACAD_MLINESTYLE
350
17
0
DICTIONARY
5
D
100
AcDbDictionary
0
DICTIONARY
5
1A
330
C
100
AcDbDictionary
0
DICTIONARY
5
17
100
AcDbDictionary
0
ENDSEC
0
EOF
